<?xml version="1.0" standalone="no"?>
<!DOCTYPE svg PUBLIC "-//W3C//DTD SVG 20010904//EN"
 "http://www.w3.org/TR/2001/REC-SVG-20010904/DTD/svg10.dtd">
<svg version="1.0" xmlns="http://www.w3.org/2000/svg"
 width="512.000000pt" height="512.000000pt" viewBox="0 0 512.000000 512.000000"
 preserveAspectRatio="xMidYMid meet">
<metadata>
Created by potrace 1.14, written by Peter Selinger 2001-2017
</metadata>
<g transform="translate(0.000000,512.000000) scale(0.100000,-0.100000)"
fill="#000000" stroke="none">
<path d="M2369 5116 c-2 -2 -36 -6 -74 -10 -39 -4 -81 -8 -95 -11 -31 -5 -135
-23 -174 -31 -49 -9 -236 -61 -311 -87 -107 -37 -169 -64 -307 -132 -567 -283
-1020 -787 -1244 -1384 -35 -92 -97 -300 -108 -358 -2 -15 -9 -53 -15 -83 -29
-159 -36 -244 -35 -470 0 -113 4 -234 8 -270 5 -36 10 -72 11 -80 24 -194 107
-483 195 -678 261 -580 707 -1029 1286 -1295 192 -88 445 -164 639 -193 22 -3
51 -8 65 -10 120 -20 464 -26 614 -11 116 12 327 52 441 86 806 234 1442 837
1717 1631 16 47 31 94 33 104 3 10 9 33 14 50 16 48 59 254 66 316 4 30 9 66
11 80 9 49 12 456 3 525 -15 134 -20 168 -29 214 -55 270 -118 457 -235 693
-166 334 -416 637 -720 874 -56 43 -233 164 -242 164 -3 0 -14 6 -22 14 -20
18 -257 137 -331 166 -53 21 -179 67 -210 76 -142 41 -300 76 -415 90 -22 3
-51 8 -65 11 -28 5 -466 14 -471 9z m501 -925 c620 -127 1095 -556 1280 -1155
46 -148 65 -287 65 -476 0 -267 -41 -459 -149 -695 -74 -162 -155 -285 -281
-423 -211 -232 -470 -392 -780 -481 -38 -11 -88 -23 -110 -27 -22 -3 -42 -7
-45 -9 -39 -24 -447 -25 -565 -2 -44 9 -93 19 -110 22 -109 21 -462 167 -473
196 -2 5 -8 9 -13 9 -13 0 -154 100 -206 145 -66 59 -178 176 -229 241 -65 84
-175 261 -189 304 -4 14 -11 30 -16 35 -38 48 -121 342 -138 490 -13 111 -6
372 13 480 44 245 145 483 293 689 81 113 202 242 288 307 17 13 32 26 35 30
18 23 195 130 295 179 164 81 349 137 520 158 125 16 398 7 515 -17z"/>
</g>
</svg>
